<?xml version="1.0" encoding="UTF-8" standalone="no"?>
<svg
   xmlns:dc="http://purl.org/dc/elements/1.1/"
   xmlns:cc="http://creativecommons.org/ns#"
   xmlns:rdf="http://www.w3.org/1999/02/22-rdf-syntax-ns#"
   xmlns:svg="http://www.w3.org/2000/svg"
   xmlns="http://www.w3.org/2000/svg"
   xmlns:sodipodi="http://sodipodi.sourceforge.net/DTD/sodipodi-0.dtd"
   xmlns:inkscape="http://www.inkscape.org/namespaces/inkscape"
   aria-hidden="true"
   focusable="false"
   data-prefix="fas"
   data-icon="chart-line"
   class="svg-inline--fa fa-chart-line fa-w-16"
   role="img"
   viewBox="0 0 512 512"
   version="1.1"
   id="svg60"
   sodipodi:docname="ecmm.svg"
   inkscape:export-filename="/home/julian/Downloads/inspect.png"
   inkscape:export-xdpi="96"
   inkscape:export-ydpi="96"
   inkscape:version="1.0 (4035a4fb49, 2020-05-01)">
  <metadata
     id="metadata66">
    <rdf:RDF>
      <cc:Work
         rdf:about="">
        <dc:format>image/svg+xml</dc:format>
        <dc:type
           rdf:resource="http://purl.org/dc/dcmitype/StillImage" />
        <dc:title></dc:title>
      </cc:Work>
    </rdf:RDF>
  </metadata>
  <defs
     id="defs64">
    <marker
       inkscape:stockid="Arrow1Lend"
       orient="auto"
       refY="0.0"
       refX="0.0"
       id="Arrow1Lend"
       style="overflow:visible;"
       inkscape:isstock="true">
      <path
         id="path850"
         d="M 0.0,0.0 L 5.0,-5.0 L -12.5,0.0 L 5.0,5.0 L 0.0,0.0 z "
         style="fill-rule:evenodd;stroke:#000000;stroke-width:1pt;stroke-opacity:1;fill:#000000;fill-opacity:1"
         transform="scale(0.8) rotate(180) translate(12.5,0)" />
    </marker>
    <inkscape:path-effect
       effect="bspline"
       id="path-effect845"
       is_visible="true"
       lpeversion="1"
       weight="33.333333"
       steps="2"
       helper_size="0"
       apply_no_weight="true"
       apply_with_weight="true"
       only_selected="false" />
  </defs>
  <sodipodi:namedview
     pagecolor="#ffffff"
     bordercolor="#666666"
     borderopacity="1"
     objecttolerance="10"
     gridtolerance="10"
     guidetolerance="10"
     inkscape:pageopacity="0"
     inkscape:pageshadow="2"
     inkscape:window-width="2560"
     inkscape:window-height="1369"
     id="namedview62"
     showgrid="false"
     inkscape:zoom="1.1697645"
     inkscape:cx="-6.5892487"
     inkscape:cy="214.41851"
     inkscape:window-x="1912"
     inkscape:window-y="-8"
     inkscape:window-maximized="1"
     inkscape:current-layer="svg60"
     inkscape:document-rotation="0" />
  <path
     style="fill:none;stroke:#000000;stroke-width:26.5136;stroke-linecap:round;stroke-linejoin:miter;stroke-miterlimit:4;stroke-dasharray:none;stroke-opacity:1"
     d="M 13.21936,13.256816 V 498.7432 h 485.48638"
     id="path837" />
  <path
     style="fill:none;stroke:#000000;stroke-width:10;stroke-linecap:butt;stroke-linejoin:miter;stroke-miterlimit:4;stroke-dasharray:none;stroke-opacity:1"
     d="m 32.57855,422.50977 h 154.74853 v -138.4274 h 106.9941 V 151.69984 H 399.50183 V 31.40703 h 109.41204"
     id="path839" />
  <path
     style="fill:none;stroke:#000000;stroke-width:8;stroke-linecap:butt;stroke-linejoin:miter;stroke-miterlimit:4;stroke-dasharray:none;stroke-opacity:1"
     d="m 138.31173,461.80139 c 29.82201,-8.06 59.64335,-16.11982 88.2557,-31.33291 28.61234,-15.21309 56.01518,-37.57864 78.07898,-60.44847 22.06379,-22.86983 38.78759,-46.24284 52.08637,-65.78802 13.29879,-19.54518 23.17187,-35.26151 35.06023,-57.02324 11.88835,-21.76172 25.79126,-49.56754 37.88109,-75.25841 12.08983,-25.69088 22.36589,-49.26538 32.64237,-72.84082"
     id="path843"
     inkscape:path-effect="#path-effect845"
     inkscape:original-d="m 138.31173,461.80139 c 29.82233,-8.05882 59.64367,-16.11864 89.464,-24.17946 27.40493,-22.36545 54.80777,-44.731 82.21015,-67.098 16.72546,-23.37294 33.44925,-46.74595 50.17238,-70.12043 9.87448,-15.71596 19.74756,-31.43229 29.61984,-47.14994 13.90446,-27.80593 27.80737,-55.61175 41.70956,-83.41913 10.27748,-23.57444 20.55354,-47.14894 30.82881,-70.72491" />
  <path
     style="fill:#000000;fill-opacity:1;stroke:none;stroke-width:0.747967px;stroke-linecap:butt;stroke-linejoin:miter;stroke-opacity:1"
     d="m 472.85407,103.49608 12.61475,5.12581 c 0,0 3.2091,0.72851 4.72698,0.2945 1.60045,-0.45731 3.10158,-1.54191 4.06637,-2.89825 0.82848,-1.16477 1.10746,-2.68916 1.20545,-4.11512 0.0509,-0.7414 -0.3282,-2.2051 -0.3282,-2.2051 L 480.91414,66.185263 c 0,0 -0.75837,-1.395674 -2.05056,-1.864719 -0.95173,-0.345471 -1.98359,-0.564528 -2.99456,-0.508899 -0.37355,0.02055 -1.07919,0.308281 -1.07919,0.308281 L 441.75069,78.14421 c 0,0 -1.76639,1.195112 -2.39283,2.033779 -0.68806,0.921186 -1.2195,2.018021 -1.39626,3.154152 -0.20537,1.320028 -0.0702,2.746501 0.43223,3.984357 0.45075,1.111532 1.22707,1.945441 2.21465,2.836098 0.22949,0.206985 0.74367,0.553541 0.74367,0.553541 l 13.67684,5.525793 z"
     id="path1125"
     sodipodi:nodetypes="ccaaaccsaccaaasccc" />
</svg>
